<svg xmlns="http://www.w3.org/2000/svg" id="pf-perimeter-triangle-figure" width="310" height="310" viewBox="0 0 310 310">
  <defs>
    <clipPath id="pf-perimeter-triangle-__clipPath-0">
      <rect x="5.0" y="5.0" width="300.0" height="300.0"/>
    </clipPath>
    <clipPath id="pf-perimeter-triangle-__clipPath-1">
      <rect x="5.0" y="5.0" width="300.0" height="300.0"/>
    </clipPath>
  </defs>
  <g id="pf-perimeter-triangle-__group-0">
    <path id="pf-perimeter-triangle-__path-0" d="M 35.0 275.0 L 170.0 275.0 L 275.0 50.0 Z" stroke="black" stroke-width="2" fill="none" clip-path="url(#pf-perimeter-triangle-__clipPath-1)"/>
  </g>
  <g id="pf-perimeter-triangle-__label-0" transform="translate(102.5,290.0) translate(-8.2,-5.4)">
    <g id="pf-perimeter-triangle-__g-0">
      <svg xmlns:xlink="http://www.w3.org/1999/xlink" style="vertical-align: -2.712px" width="16.392px" height="10.712px" role="img" focusable="false" viewBox="0 -442 905.6 592" x="0.0" y="0.0">
        <defs>
          <path id="pf-perimeter-triangle-MJX-2-TEX-I-1D460" d="M131 289Q131 321 147 354T203 415T300 442Q362 442 390 415T419 355Q419 323 402 308T364 292Q351 292 340 300T328 326Q328 342 337 354T354 372T367 378Q368 378 368 379Q368 382 361 388T336 399T297 405Q249 405 227 379T204 326Q204 301 223 291T278 274T330 259Q396 230 396 163Q396 135 385 107T352 51T289 7T195 -10Q118 -10 86 19T53 87Q53 126 74 143T118 160Q133 160 146 151T160 120Q160 94 142 76T111 58Q109 57 108 57T107 55Q108 52 115 47T146 34T201 27Q237 27 263 38T301 66T318 97T323 122Q323 150 302 164T254 181T195 196T148 231Q131 256 131 289Z"/>
          <path id="pf-perimeter-triangle-MJX-2-TEX-N-31" d="M213 578L200 573Q186 568 160 563T102 556H83V602H102Q149 604 189 617T245 641T273 663Q275 666 285 666Q294 666 302 660V361L303 61Q310 54 315 52T339 48T401 46H427V0H416Q395 3 257 3Q121 3 100 0H88V46H114Q136 46 152 46T177 47T193 50T201 52T207 57T213 61V578Z"/>
        </defs>
        <g stroke="currentColor" fill="currentColor" stroke-width="0" transform="scale(1,-1)">
          <g data-mml-node="math">
            <g data-mml-node="msub" data-semantic-type="subscript" data-semantic-role="latinletter" data-semantic-id="2" data-semantic-children="0,1" data-semantic-speech="s 1">
              <g data-mml-node="mi" data-semantic-type="identifier" data-semantic-role="latinletter" data-semantic-font="italic" data-semantic-annotation="clearspeak:simple" data-semantic-id="0" data-semantic-parent="2" data-semantic-speech="s" data-semantic-prefix="Base">
                <use data-c="1D460" xlink:href="#pf-perimeter-triangle-MJX-2-TEX-I-1D460"/>
              </g>
              <g data-mml-node="mn" transform="translate(502,-150) scale(0.707)" data-semantic-type="number" data-semantic-role="integer" data-semantic-font="normal" data-semantic-annotation="clearspeak:simple" data-semantic-id="1" data-semantic-parent="2" data-semantic-speech="1" data-semantic-prefix="Subscript">
                <use data-c="31" xlink:href="#pf-perimeter-triangle-MJX-2-TEX-N-31"/>
              </g>
            </g>
          </g>
        </g>
      </svg>
    </g>
  </g>
  <g id="pf-perimeter-triangle-__label-1" transform="translate(147.5,140.0) translate(-8.2,-5.4)">
    <g id="pf-perimeter-triangle-__g-1">
      <svg xmlns:xlink="http://www.w3.org/1999/xlink" style="vertical-align: -2.712px" width="16.392px" height="10.712px" role="img" focusable="false" viewBox="0 -442 905.6 592" x="0.0" y="0.0">
        <defs>
          <path id="pf-perimeter-triangle-MJX-3-TEX-I-1D460" d="M131 289Q131 321 147 354T203 415T300 442Q362 442 390 415T419 355Q419 323 402 308T364 292Q351 292 340 300T328 326Q328 342 337 354T354 372T367 378Q368 378 368 379Q368 382 361 388T336 399T297 405Q249 405 227 379T204 326Q204 301 223 291T278 274T330 259Q396 230 396 163Q396 135 385 107T352 51T289 7T195 -10Q118 -10 86 19T53 87Q53 126 74 143T118 160Q133 160 146 151T160 120Q160 94 142 76T111 58Q109 57 108 57T107 55Q108 52 115 47T146 34T201 27Q237 27 263 38T301 66T318 97T323 122Q323 150 302 164T254 181T195 196T148 231Q131 256 131 289Z"/>
          <path id="pf-perimeter-triangle-MJX-3-TEX-N-32" d="M109 429Q82 429 66 447T50 491Q50 562 103 614T235 666Q326 666 387 610T449 465Q449 422 429 383T381 315T301 241Q265 210 201 149L142 93L218 92Q375 92 385 97Q392 99 409 186V189H449V186Q448 183 436 95T421 3V0H50V19V31Q50 38 56 46T86 81Q115 113 136 137Q145 147 170 174T204 211T233 244T261 278T284 308T305 340T320 369T333 401T340 431T343 464Q343 527 309 573T212 619Q179 619 154 602T119 569T109 550Q109 549 114 549Q132 549 151 535T170 489Q170 464 154 447T109 429Z"/>
        </defs>
        <g stroke="currentColor" fill="currentColor" stroke-width="0" transform="scale(1,-1)">
          <g data-mml-node="math">
            <g data-mml-node="msub" data-semantic-type="subscript" data-semantic-role="latinletter" data-semantic-id="2" data-semantic-children="0,1" data-semantic-speech="s 2">
              <g data-mml-node="mi" data-semantic-type="identifier" data-semantic-role="latinletter" data-semantic-font="italic" data-semantic-annotation="clearspeak:simple" data-semantic-id="0" data-semantic-parent="2" data-semantic-speech="s" data-semantic-prefix="Base">
                <use data-c="1D460" xlink:href="#pf-perimeter-triangle-MJX-3-TEX-I-1D460"/>
              </g>
              <g data-mml-node="mn" transform="translate(502,-150) scale(0.707)" data-semantic-type="number" data-semantic-role="integer" data-semantic-font="normal" data-semantic-annotation="clearspeak:simple" data-semantic-id="1" data-semantic-parent="2" data-semantic-speech="2" data-semantic-prefix="Subscript">
                <use data-c="32" xlink:href="#pf-perimeter-triangle-MJX-3-TEX-N-32"/>
              </g>
            </g>
          </g>
        </g>
      </svg>
    </g>
  </g>
  <g id="pf-perimeter-triangle-__label-2" transform="translate(222.5,192.5) translate(-8.2,-5.5)">
    <g id="pf-perimeter-triangle-__g-2">
      <svg xmlns:xlink="http://www.w3.org/1999/xlink" style="vertical-align: -3.000px" width="16.392px" height="11.000px" role="img" focusable="false" viewBox="0 -442 905.6 607.6" x="0.0" y="0.0">
        <defs>
          <path id="pf-perimeter-triangle-MJX-4-TEX-I-1D460" d="M131 289Q131 321 147 354T203 415T300 442Q362 442 390 415T419 355Q419 323 402 308T364 292Q351 292 340 300T328 326Q328 342 337 354T354 372T367 378Q368 378 368 379Q368 382 361 388T336 399T297 405Q249 405 227 379T204 326Q204 301 223 291T278 274T330 259Q396 230 396 163Q396 135 385 107T352 51T289 7T195 -10Q118 -10 86 19T53 87Q53 126 74 143T118 160Q133 160 146 151T160 120Q160 94 142 76T111 58Q109 57 108 57T107 55Q108 52 115 47T146 34T201 27Q237 27 263 38T301 66T318 97T323 122Q323 150 302 164T254 181T195 196T148 231Q131 256 131 289Z"/>
          <path id="pf-perimeter-triangle-MJX-4-TEX-N-33" d="M127 463Q100 463 85 480T69 524Q69 579 117 622T233 665Q268 665 277 664Q351 652 390 611T430 522Q430 470 396 421T302 350L299 348Q299 347 308 345T337 336T375 315Q457 262 457 175Q457 96 395 37T238 -22Q158 -22 100 21T42 130Q42 158 60 175T105 193Q133 193 151 175T169 130Q169 119 166 110T159 94T148 82T136 74T126 70T118 67L114 66Q165 21 238 21Q293 21 321 74Q338 107 338 175V195Q338 290 274 322Q259 328 213 329L171 330L168 332Q166 335 166 348Q166 366 174 366Q202 366 232 371Q266 376 294 413T322 525V533Q322 590 287 612Q265 626 240 626Q208 626 181 615T143 592T132 580H135Q138 579 143 578T153 573T165 566T175 555T183 540T186 520Q186 498 172 481T127 463Z"/>
        </defs>
        <g stroke="currentColor" fill="currentColor" stroke-width="0" transform="scale(1,-1)">
          <g data-mml-node="math">
            <g data-mml-node="msub" data-semantic-type="subscript" data-semantic-role="latinletter" data-semantic-id="2" data-semantic-children="0,1" data-semantic-speech="s 3">
              <g data-mml-node="mi" data-semantic-type="identifier" data-semantic-role="latinletter" data-semantic-font="italic" data-semantic-annotation="clearspeak:simple" data-semantic-id="0" data-semantic-parent="2" data-semantic-speech="s" data-semantic-prefix="Base">
                <use data-c="1D460" xlink:href="#pf-perimeter-triangle-MJX-4-TEX-I-1D460"/>
              </g>
              <g data-mml-node="mn" transform="translate(502,-150) scale(0.707)" data-semantic-type="number" data-semantic-role="integer" data-semantic-font="normal" data-semantic-annotation="clearspeak:simple" data-semantic-id="1" data-semantic-parent="2" data-semantic-speech="3" data-semantic-prefix="Subscript">
                <use data-c="33" xlink:href="#pf-perimeter-triangle-MJX-4-TEX-N-33"/>
              </g>
            </g>
          </g>
        </g>
      </svg>
    </g>
  </g>
</svg>
