<svg xmlns="http://www.w3.org/2000/svg" id="pf-quarter-pizza-figure" width="310" height="310" viewBox="0 0 310 310">
  <defs>
    <clipPath id="pf-quarter-pizza-__clipPath-0">
      <rect x="5.0" y="5.0" width="300.0" height="300.0"/>
    </clipPath>
    <clipPath id="pf-quarter-pizza-__clipPath-1">
      <rect x="5.0" y="5.0" width="300.0" height="300.0"/>
    </clipPath>
  </defs>
  <g id="pf-quarter-pizza-axes" stroke="black" stroke-width="2">
    <line id="pf-quarter-pizza-__line-0" x1="5.0" y1="155.0" x2="305.0" y2="155.0" stroke="black" stroke-width="2"/>
    <line id="pf-quarter-pizza-__line-1" x1="155.0" y1="305.0" x2="155.0" y2="5.0" stroke="black" stroke-width="2"/>
  </g>
  <path id="pf-quarter-pizza-__path-0" d="M 290.0 155.0 L 289.7 146.5 L 288.9 138.1 L 287.6 129.7 L 285.8 121.4 L 283.4 113.3 L 280.5 105.3 L 277.2 97.5 L 273.3 90.0 L 269.0 82.7 L 264.2 75.6 L 259.0 68.9 L 253.4 62.6 L 247.4 56.6 L 241.1 51.0 L 234.4 45.8 L 227.3 41.0 L 220.0 36.7 L 212.5 32.8 L 204.7 29.5 L 196.7 26.6 L 188.6 24.2 L 180.3 22.4 L 171.9 21.1 L 163.5 20.3 L 155.0 20.0 L 146.5 20.3 L 138.1 21.1 L 129.7 22.4 L 121.4 24.2 L 113.3 26.6 L 105.3 29.5 L 97.5 32.8 L 90.0 36.7 L 82.7 41.0 L 75.6 45.8 L 68.9 51.0 L 62.6 56.6 L 56.6 62.6 L 51.0 68.9 L 45.8 75.6 L 41.0 82.7 L 36.7 90.0 L 32.8 97.5 L 29.5 105.3 L 26.6 113.3 L 24.2 121.4 L 22.4 129.7 L 21.1 138.1 L 20.3 146.5 L 20.0 155.0 L 20.3 163.5 L 21.1 171.9 L 22.4 180.3 L 24.2 188.6 L 26.6 196.7 L 29.5 204.7 L 32.8 212.5 L 36.7 220.0 L 41.0 227.3 L 45.8 234.4 L 51.0 241.1 L 56.6 247.4 L 62.6 253.4 L 68.9 259.0 L 75.6 264.2 L 82.7 269.0 L 90.0 273.3 L 97.5 277.2 L 105.3 280.5 L 113.3 283.4 L 121.4 285.8 L 129.7 287.6 L 138.1 288.9 L 146.5 289.7 L 155.0 290.0 L 163.5 289.7 L 171.9 288.9 L 180.3 287.6 L 188.6 285.8 L 196.7 283.4 L 204.7 280.5 L 212.5 277.2 L 220.0 273.3 L 227.3 269.0 L 234.4 264.2 L 241.1 259.0 L 247.4 253.4 L 253.4 247.4 L 259.0 241.1 L 264.2 234.4 L 269.0 227.3 L 273.3 220.0 L 277.2 212.5 L 280.5 204.7 L 283.4 196.7 L 285.8 188.6 L 287.6 180.3 L 288.9 171.9 L 289.7 163.5 Z" stroke="grey" stroke-width="2" fill="none"/>
  <path id="pf-quarter-pizza-__path-1" d="M 155.0 290.0 L 157.1 290.0 L 159.2 289.9 L 161.4 289.9 L 163.5 289.7 L 165.6 289.6 L 167.7 289.4 L 169.8 289.2 L 171.9 288.9 L 174.0 288.7 L 176.1 288.3 L 178.2 288.0 L 180.3 287.6 L 182.4 287.2 L 184.4 286.7 L 186.5 286.3 L 188.6 285.8 L 190.6 285.2 L 192.7 284.6 L 194.7 284.0 L 196.7 283.4 L 198.7 282.7 L 200.7 282.0 L 202.7 281.3 L 204.7 280.5 L 206.7 279.7 L 208.6 278.9 L 210.6 278.0 L 212.5 277.2 L 214.4 276.2 L 216.3 275.3 L 218.2 274.3 L 220.0 273.3 L 221.9 272.3 L 223.7 271.2 L 225.5 270.1 L 227.3 269.0 L 229.1 267.8 L 230.9 266.7 L 232.6 265.5 L 234.4 264.2 L 236.1 263.0 L 237.7 261.7 L 239.4 260.4 L 241.1 259.0 L 242.7 257.7 L 244.3 256.3 L 245.9 254.9 L 247.4 253.4 L 248.9 251.9 L 250.5 250.5 L 251.9 248.9 L 253.4 247.4 L 254.9 245.9 L 256.3 244.3 L 257.7 242.7 L 259.0 241.1 L 260.4 239.4 L 261.7 237.7 L 263.0 236.1 L 264.2 234.4 L 265.5 232.6 L 266.7 230.9 L 267.8 229.1 L 269.0 227.3 L 270.1 225.5 L 271.2 223.7 L 272.3 221.9 L 273.3 220.0 L 274.3 218.2 L 275.3 216.3 L 276.2 214.4 L 277.2 212.5 L 278.0 210.6 L 278.9 208.6 L 279.7 206.7 L 280.5 204.7 L 281.3 202.7 L 282.0 200.7 L 282.7 198.7 L 283.4 196.7 L 284.0 194.7 L 284.6 192.7 L 285.2 190.6 L 285.8 188.6 L 286.3 186.5 L 286.7 184.4 L 287.2 182.4 L 287.6 180.3 L 288.0 178.2 L 288.3 176.1 L 288.7 174.0 L 288.9 171.9 L 289.2 169.8 L 289.4 167.7 L 289.6 165.6 L 289.7 163.5 L 289.9 161.4 L 289.9 159.2 L 290.0 157.1" stroke="orange" stroke-width="10" fill="none"/>
  <path id="pf-quarter-pizza-__path-2" d="M 155.0 282.5 L 157.0 282.5 L 159.0 282.4 L 161.0 282.4 L 163.0 282.2 L 165.0 282.1 L 167.0 281.9 L 169.0 281.7 L 171.0 281.5 L 173.0 281.2 L 174.9 280.9 L 176.9 280.6 L 178.9 280.2 L 180.9 279.9 L 182.8 279.4 L 184.8 279.0 L 186.7 278.5 L 188.6 278.0 L 190.6 277.4 L 192.5 276.9 L 194.4 276.3 L 196.3 275.6 L 198.2 275.0 L 200.1 274.3 L 201.9 273.5 L 203.8 272.8 L 205.6 272.0 L 207.5 271.2 L 209.3 270.4 L 211.1 269.5 L 212.9 268.6 L 214.7 267.7 L 216.4 266.7 L 218.2 265.8 L 219.9 264.7 L 221.6 263.7 L 223.3 262.7 L 225.0 261.6 L 226.7 260.5 L 228.3 259.3 L 229.9 258.1 L 231.6 257.0 L 233.1 255.7 L 234.7 254.5 L 236.3 253.2 L 237.8 252.0 L 239.3 250.6 L 240.8 249.3 L 242.3 247.9 L 243.7 246.6 L 245.2 245.2 L 246.6 243.7 L 247.9 242.3 L 249.3 240.8 L 250.6 239.3 L 252.0 237.8 L 253.2 236.3 L 254.5 234.7 L 255.7 233.1 L 257.0 231.6 L 258.1 229.9 L 259.3 228.3 L 260.5 226.7 L 261.6 225.0 L 262.7 223.3 L 263.7 221.6 L 264.7 219.9 L 265.8 218.2 L 266.7 216.4 L 267.7 214.7 L 268.6 212.9 L 269.5 211.1 L 270.4 209.3 L 271.2 207.5 L 272.0 205.6 L 272.8 203.8 L 273.5 201.9 L 274.3 200.1 L 275.0 198.2 L 275.6 196.3 L 276.3 194.4 L 276.9 192.5 L 277.4 190.6 L 278.0 188.6 L 278.5 186.7 L 279.0 184.8 L 279.4 182.8 L 279.9 180.9 L 280.2 178.9 L 280.6 176.9 L 280.9 174.9 L 281.2 173.0 L 281.5 171.0 L 281.7 169.0 L 281.9 167.0 L 282.1 165.0 L 282.2 163.0 L 282.4 161.0 L 282.4 159.0 L 282.5 157.0" stroke="red" stroke-width="5" fill="none"/>
  <path id="pf-quarter-pizza-__path-3" d="M 155.0 278.0 L 156.9 278.0 L 158.9 277.9 L 160.8 277.9 L 162.7 277.8 L 164.7 277.6 L 166.6 277.5 L 168.5 277.3 L 170.4 277.0 L 172.3 276.8 L 174.2 276.5 L 176.1 276.2 L 178.0 275.8 L 179.9 275.4 L 181.8 275.0 L 183.7 274.6 L 185.6 274.1 L 187.5 273.6 L 189.3 273.1 L 191.2 272.6 L 193.0 272.0 L 194.8 271.4 L 196.7 270.7 L 198.5 270.1 L 200.3 269.4 L 202.1 268.6 L 203.8 267.9 L 205.6 267.1 L 207.4 266.3 L 209.1 265.5 L 210.8 264.6 L 212.6 263.7 L 214.3 262.8 L 215.9 261.8 L 217.6 260.9 L 219.3 259.9 L 220.9 258.9 L 222.5 257.8 L 224.1 256.7 L 225.7 255.6 L 227.3 254.5 L 228.9 253.4 L 230.4 252.2 L 231.9 251.0 L 233.4 249.8 L 234.9 248.5 L 236.3 247.3 L 237.8 246.0 L 239.2 244.7 L 240.6 243.3 L 242.0 242.0 L 243.3 240.6 L 244.7 239.2 L 246.0 237.8 L 247.3 236.3 L 248.5 234.9 L 249.8 233.4 L 251.0 231.9 L 252.2 230.4 L 253.4 228.9 L 254.5 227.3 L 255.6 225.7 L 256.7 224.1 L 257.8 222.5 L 258.9 220.9 L 259.9 219.3 L 260.9 217.6 L 261.8 215.9 L 262.8 214.3 L 263.7 212.6 L 264.6 210.8 L 265.5 209.1 L 266.3 207.4 L 267.1 205.6 L 267.9 203.8 L 268.6 202.1 L 269.4 200.3 L 270.1 198.5 L 270.7 196.7 L 271.4 194.8 L 272.0 193.0 L 272.6 191.2 L 273.1 189.3 L 273.6 187.5 L 274.1 185.6 L 274.6 183.7 L 275.0 181.8 L 275.4 179.9 L 275.8 178.0 L 276.2 176.1 L 276.5 174.2 L 276.8 172.3 L 277.0 170.4 L 277.3 168.5 L 277.5 166.6 L 277.6 164.7 L 277.8 162.7 L 277.9 160.8 L 277.9 158.9 L 278.0 156.9 L 155.0 155.0 Z" stroke="none" stroke-width="2" fill="yellow"/>
</svg>
