<svg xmlns="http://www.w3.org/2000/svg" id="pf-right-angle-figure" width="310" height="410" viewBox="0 0 310 410">
  <defs>
    <clipPath id="pf-right-angle-__clipPath-0">
      <rect x="5.0" y="5.0" width="300.0" height="400.0"/>
    </clipPath>
    <clipPath id="pf-right-angle-__clipPath-1">
      <rect x="5.0" y="5.0" width="300.0" height="400.0"/>
    </clipPath>
    <marker id="pf-right-angle-arrow-head-end-3_None_24_60-purple" markerWidth="13.5" markerHeight="12.0" markerUnits="userSpaceOnUse" orient="auto-start-reverse" refX="9.8" refY="6.0">
      <path d="M 13.5 6.0L 0.0 12.0L 2.6 7.5L 2.6 4.5L 0.0 0.0Z" fill="purple" stroke="none"/>
    </marker>
    <marker id="pf-right-angle-arrow-head-end-3_None_24_60-purple-outline" markerWidth="17.5" markerHeight="16.0" markerUnits="userSpaceOnUse" orient="auto-start-reverse" refX="11.8" refY="8.0">
      <path d="M 16.3 9.8 L 2.8 15.8 A 2 2 0 0 1 0.0 14.0 L 0.0 2.0 A 2 2 0 0 1 2.8 0.2 L 16.3 6.2 A 2 2 0 0 1 16.3 9.8 Z" fill="white" stroke="none"/>
    </marker>
  </defs>
  <path id="pf-right-angle-__path-0" stroke="black" stroke-width="2" fill="none" d="M 22.0 305.0 L 22.0 288.0 L 5.0 288.0"/>
  <g id="pf-right-angle-__label-0" transform="translate(155.0,351.0) translate(-40.6,-13.5)">
    <g id="pf-right-angle-__g-0">
      <text font-family="sans-serif" font-size="14" x="0.0" y="10.6">Right Angle</text>
    </g>
  </g>
  <line id="pf-right-angle-__line-0" x1="5.0" y1="305.0" x2="301.3" y2="305.0" stroke="purple" stroke-width="3" fill="none" marker-end="url(#pf-right-angle-arrow-head-end-3_None_24_60-purple)"/>
  <line id="pf-right-angle-__line-1" x1="5.0" y1="305.0" x2="5.0" y2="8.7" stroke="purple" stroke-width="3" fill="none" marker-end="url(#pf-right-angle-arrow-head-end-3_None_24_60-purple)"/>
</svg>
